<?xml version="1.0" encoding="UTF-8"?>
<!DOCTYPE svg PUBLIC "-//W3C//DTD SVG 1.1//EN" "http://www.w3.org/Graphics/SVG/1.1/DTD/svg11.dtd">
<svg version="1.1" xmlns="http://www.w3.org/2000/svg" xmlns:xlink="http://www.w3.org/1999/xlink" x="0" y="0" width="555" height="420" viewBox="0, 0, 555, 420">
  <g id="Layer_1">
    <g>
      <path d="M90.5,45.5 C82.216,45.5 75.5,38.784 75.5,30.5 C75.5,22.216 82.216,15.5 90.5,15.5 C98.784,15.5 105.5,22.216 105.5,30.5 C105.5,38.784 98.784,45.5 90.5,45.5 z" fill="#006CA9"/>
      <path d="M90.5,45.5 C82.216,45.5 75.5,38.784 75.5,30.5 C75.5,22.216 82.216,15.5 90.5,15.5 C98.784,15.5 105.5,22.216 105.5,30.5 C105.5,38.784 98.784,45.5 90.5,45.5 z" fill-opacity="0" stroke="#294270" stroke-width="1"/>
    </g>
    <g>
      <path d="M149.122,45.5 C140.838,45.5 134.122,38.784 134.122,30.5 C134.122,22.216 140.838,15.5 149.122,15.5 C157.406,15.5 164.122,22.216 164.122,30.5 C164.122,38.784 157.406,45.5 149.122,45.5 z" fill="#F0801A"/>
      <path d="M149.122,45.5 C140.838,45.5 134.122,38.784 134.122,30.5 C134.122,22.216 140.838,15.5 149.122,15.5 C157.406,15.5 164.122,22.216 164.122,30.5 C164.122,38.784 157.406,45.5 149.122,45.5 z" fill-opacity="0" stroke="#294270" stroke-width="1"/>
    </g>
    <g>
      <path d="M149.122,105.5 C140.838,105.5 134.122,98.784 134.122,90.5 C134.122,82.216 140.838,75.5 149.122,75.5 C157.406,75.5 164.122,82.216 164.122,90.5 C164.122,98.784 157.406,105.5 149.122,105.5 z" fill="#006CA9"/>
      <path d="M149.122,105.5 C140.838,105.5 134.122,98.784 134.122,90.5 C134.122,82.216 140.838,75.5 149.122,75.5 C157.406,75.5 164.122,82.216 164.122,90.5 C164.122,98.784 157.406,105.5 149.122,105.5 z" fill-opacity="0" stroke="#294270" stroke-width="1"/>
    </g>
    <path d="M105.5,30.5 L135.5,30.5" fill-opacity="0" stroke="#294270" stroke-width="6"/>
    <path d="M105.5,90.5 L135.5,90.5" fill-opacity="0" stroke="#294270" stroke-width="6"/>
    <g>
      <path d="M90.5,105.5 C82.216,105.5 75.5,98.784 75.5,90.5 C75.5,82.216 82.216,75.5 90.5,75.5 C98.784,75.5 105.5,82.216 105.5,90.5 C105.5,98.784 98.784,105.5 90.5,105.5 z" fill="#F0801A"/>
      <path d="M90.5,105.5 C82.216,105.5 75.5,98.784 75.5,90.5 C75.5,82.216 82.216,75.5 90.5,75.5 C98.784,75.5 105.5,82.216 105.5,90.5 C105.5,98.784 98.784,105.5 90.5,105.5 z" fill-opacity="0" stroke="#294270" stroke-width="1"/>
    </g>
    <text transform="matrix(1, 0, 0, 1, 201.311, 60)">
      <tspan x="-23.689" y="23" font-family="LucidaGrande" font-size="62" fill="#006CA9">✓</tspan>
    </text>
    <text transform="matrix(1, 0, 0, 1, 527.695, 60)">
      <tspan x="-17.695" y="19" font-family="ZapfDingbatsITC" font-size="62" fill="#F0801A">✗</tspan>
    </text>
    <path d="M90.5,45.5 L90.5,75.5" fill-opacity="0" stroke="#294270" stroke-width="6"/>
    <path d="M149.122,45.5 L149.122,75.5" fill-opacity="0" stroke="#294270" stroke-width="6"/>
    <g>
      <path d="M60.5,165.5 C52.216,165.5 45.5,158.784 45.5,150.5 C45.5,142.216 52.216,135.5 60.5,135.5 C68.784,135.5 75.5,142.216 75.5,150.5 C75.5,158.784 68.784,165.5 60.5,165.5 z" fill="#006CA9"/>
      <path d="M60.5,165.5 C52.216,165.5 45.5,158.784 45.5,150.5 C45.5,142.216 52.216,135.5 60.5,135.5 C68.784,135.5 75.5,142.216 75.5,150.5 C75.5,158.784 68.784,165.5 60.5,165.5 z" fill-opacity="0" stroke="#294270" stroke-width="1"/>
    </g>
    <g>
      <path d="M120.5,165.5 C112.216,165.5 105.5,158.784 105.5,150.5 C105.5,142.216 112.216,135.5 120.5,135.5 C128.784,135.5 135.5,142.216 135.5,150.5 C135.5,158.784 128.784,165.5 120.5,165.5 z" fill="#F0801A"/>
      <path d="M120.5,165.5 C112.216,165.5 105.5,158.784 105.5,150.5 C105.5,142.216 112.216,135.5 120.5,135.5 C128.784,135.5 135.5,142.216 135.5,150.5 C135.5,158.784 128.784,165.5 120.5,165.5 z" fill-opacity="0" stroke="#294270" stroke-width="1"/>
    </g>
    <g>
      <path d="M120.5,225.5 C112.216,225.5 105.5,218.784 105.5,210.5 C105.5,202.216 112.216,195.5 120.5,195.5 C128.784,195.5 135.5,202.216 135.5,210.5 C135.5,218.784 128.784,225.5 120.5,225.5 z" fill="#006CA9"/>
      <path d="M120.5,225.5 C112.216,225.5 105.5,218.784 105.5,210.5 C105.5,202.216 112.216,195.5 120.5,195.5 C128.784,195.5 135.5,202.216 135.5,210.5 C135.5,218.784 128.784,225.5 120.5,225.5 z" fill-opacity="0" stroke="#294270" stroke-width="1"/>
    </g>
    <path d="M75.5,150.5 L105.5,150.5" fill-opacity="0" stroke="#294270" stroke-width="6"/>
    <path d="M75.5,210.5 L105.5,210.5" fill-opacity="0" stroke="#294270" stroke-width="6"/>
    <g>
      <path d="M60.5,225.5 C52.216,225.5 45.5,218.784 45.5,210.5 C45.5,202.216 52.216,195.5 60.5,195.5 C68.784,195.5 75.5,202.216 75.5,210.5 C75.5,218.784 68.784,225.5 60.5,225.5 z" fill="#F0801A"/>
      <path d="M60.5,225.5 C52.216,225.5 45.5,218.784 45.5,210.5 C45.5,202.216 52.216,195.5 60.5,195.5 C68.784,195.5 75.5,202.216 75.5,210.5 C75.5,218.784 68.784,225.5 60.5,225.5 z" fill-opacity="0" stroke="#294270" stroke-width="1"/>
    </g>
    <path d="M60.5,165.5 L60.5,195.5" fill-opacity="0" stroke="#294270" stroke-width="6"/>
    <path d="M119.122,165.5 L119.122,195.5" fill-opacity="0" stroke="#294270" stroke-width="6"/>
    <g>
      <path d="M180.5,225.5 C172.216,225.5 165.5,218.784 165.5,210.5 C165.5,202.216 172.216,195.5 180.5,195.5 C188.784,195.5 195.5,202.216 195.5,210.5 C195.5,218.784 188.784,225.5 180.5,225.5 z" fill="#F0801A"/>
      <path d="M180.5,225.5 C172.216,225.5 165.5,218.784 165.5,210.5 C165.5,202.216 172.216,195.5 180.5,195.5 C188.784,195.5 195.5,202.216 195.5,210.5 C195.5,218.784 188.784,225.5 180.5,225.5 z" fill-opacity="0" stroke="#294270" stroke-width="1"/>
    </g>
    <g>
      <path d="M180.5,165.5 C172.216,165.5 165.5,158.784 165.5,150.5 C165.5,142.216 172.216,135.5 180.5,135.5 C188.784,135.5 195.5,142.216 195.5,150.5 C195.5,158.784 188.784,165.5 180.5,165.5 z" fill="#006CA9"/>
      <path d="M180.5,165.5 C172.216,165.5 165.5,158.784 165.5,150.5 C165.5,142.216 172.216,135.5 180.5,135.5 C188.784,135.5 195.5,142.216 195.5,150.5 C195.5,158.784 188.784,165.5 180.5,165.5 z" fill-opacity="0" stroke="#294270" stroke-width="1"/>
    </g>
    <path d="M135.5,150.5 L165.5,150.5" fill-opacity="0" stroke="#294270" stroke-width="6"/>
    <path d="M180.5,165.5 L180.5,195.5" fill-opacity="0" stroke="#294270" stroke-width="6"/>
    <path d="M135.5,210.5 L165.5,210.5" fill-opacity="0" stroke="#294270" stroke-width="6"/>
    <g>
      <path d="M60.5,285.5 C52.216,285.5 45.5,278.784 45.5,270.5 C45.5,262.216 52.216,255.5 60.5,255.5 C68.784,255.5 75.5,262.216 75.5,270.5 C75.5,278.784 68.784,285.5 60.5,285.5 z" fill="#006CA9"/>
      <path d="M60.5,285.5 C52.216,285.5 45.5,278.784 45.5,270.5 C45.5,262.216 52.216,255.5 60.5,255.5 C68.784,255.5 75.5,262.216 75.5,270.5 C75.5,278.784 68.784,285.5 60.5,285.5 z" fill-opacity="0" stroke="#294270" stroke-width="1"/>
    </g>
    <g>
      <path d="M120.5,285.5 C112.216,285.5 105.5,278.784 105.5,270.5 C105.5,262.216 112.216,255.5 120.5,255.5 C128.784,255.5 135.5,262.216 135.5,270.5 C135.5,278.784 128.784,285.5 120.5,285.5 z" fill="#F0801A"/>
      <path d="M120.5,285.5 C112.216,285.5 105.5,278.784 105.5,270.5 C105.5,262.216 112.216,255.5 120.5,255.5 C128.784,255.5 135.5,262.216 135.5,270.5 C135.5,278.784 128.784,285.5 120.5,285.5 z" fill-opacity="0" stroke="#294270" stroke-width="1"/>
    </g>
    <path d="M75.5,270.5 L105.5,270.5" fill-opacity="0" stroke="#294270" stroke-width="6"/>
    <g>
      <path d="M180.5,285.5 C172.216,285.5 165.5,278.784 165.5,270.5 C165.5,262.216 172.216,255.5 180.5,255.5 C188.784,255.5 195.5,262.216 195.5,270.5 C195.5,278.784 188.784,285.5 180.5,285.5 z" fill="#006CA9"/>
      <path d="M180.5,285.5 C172.216,285.5 165.5,278.784 165.5,270.5 C165.5,262.216 172.216,255.5 180.5,255.5 C188.784,255.5 195.5,262.216 195.5,270.5 C195.5,278.784 188.784,285.5 180.5,285.5 z" fill-opacity="0" stroke="#294270" stroke-width="1"/>
    </g>
    <path d="M135.5,270.5 L165.5,270.5" fill-opacity="0" stroke="#294270" stroke-width="6"/>
    <path d="M60.5,225.5 L60.5,255.5" fill-opacity="0" stroke="#294270" stroke-width="6"/>
    <path d="M119.122,225.5 L119.122,255.5" fill-opacity="0" stroke="#294270" stroke-width="6"/>
    <path d="M180.5,225.5 L180.5,255.5" fill-opacity="0" stroke="#294270" stroke-width="6"/>
    <text transform="matrix(1, 0, 0, 1, 261.067, 360)">
      <tspan x="-23.689" y="23" font-family="LucidaGrande" font-size="62" fill="#006CA9">✓</tspan>
    </text>
    <g>
      <path d="M30.5,345.5 C22.216,345.5 15.5,338.784 15.5,330.5 C15.5,322.216 22.216,315.5 30.5,315.5 C38.784,315.5 45.5,322.216 45.5,330.5 C45.5,338.784 38.784,345.5 30.5,345.5 z" fill="#006CA9"/>
      <path d="M30.5,345.5 C22.216,345.5 15.5,338.784 15.5,330.5 C15.5,322.216 22.216,315.5 30.5,315.5 C38.784,315.5 45.5,322.216 45.5,330.5 C45.5,338.784 38.784,345.5 30.5,345.5 z" fill-opacity="0" stroke="#294270" stroke-width="1"/>
    </g>
    <g>
      <path d="M90.5,345.5 C82.216,345.5 75.5,338.784 75.5,330.5 C75.5,322.216 82.216,315.5 90.5,315.5 C98.784,315.5 105.5,322.216 105.5,330.5 C105.5,338.784 98.784,345.5 90.5,345.5 z" fill="#F0801A"/>
      <path d="M90.5,345.5 C82.216,345.5 75.5,338.784 75.5,330.5 C75.5,322.216 82.216,315.5 90.5,315.5 C98.784,315.5 105.5,322.216 105.5,330.5 C105.5,338.784 98.784,345.5 90.5,345.5 z" fill-opacity="0" stroke="#294270" stroke-width="1"/>
    </g>
    <g>
      <path d="M90.5,405.5 C82.216,405.5 75.5,398.784 75.5,390.5 C75.5,382.216 82.216,375.5 90.5,375.5 C98.784,375.5 105.5,382.216 105.5,390.5 C105.5,398.784 98.784,405.5 90.5,405.5 z" fill="#006CA9"/>
      <path d="M90.5,405.5 C82.216,405.5 75.5,398.784 75.5,390.5 C75.5,382.216 82.216,375.5 90.5,375.5 C98.784,375.5 105.5,382.216 105.5,390.5 C105.5,398.784 98.784,405.5 90.5,405.5 z" fill-opacity="0" stroke="#294270" stroke-width="1"/>
    </g>
    <path d="M45.5,330.5 L75.5,330.5" fill-opacity="0" stroke="#294270" stroke-width="6"/>
    <path d="M45.5,390.5 L75.5,390.5" fill-opacity="0" stroke="#294270" stroke-width="6"/>
    <g>
      <path d="M30.5,405.5 C22.216,405.5 15.5,398.784 15.5,390.5 C15.5,382.216 22.216,375.5 30.5,375.5 C38.784,375.5 45.5,382.216 45.5,390.5 C45.5,398.784 38.784,405.5 30.5,405.5 z" fill="#F0801A"/>
      <path d="M30.5,405.5 C22.216,405.5 15.5,398.784 15.5,390.5 C15.5,382.216 22.216,375.5 30.5,375.5 C38.784,375.5 45.5,382.216 45.5,390.5 C45.5,398.784 38.784,405.5 30.5,405.5 z" fill-opacity="0" stroke="#294270" stroke-width="1"/>
    </g>
    <path d="M30.5,345.5 L30.5,375.5" fill-opacity="0" stroke="#294270" stroke-width="6"/>
    <path d="M89.122,345.5 L89.122,375.5" fill-opacity="0" stroke="#294270" stroke-width="6"/>
    <g>
      <path d="M150.5,405.5 C142.216,405.5 135.5,398.784 135.5,390.5 C135.5,382.216 142.216,375.5 150.5,375.5 C158.784,375.5 165.5,382.216 165.5,390.5 C165.5,398.784 158.784,405.5 150.5,405.5 z" fill="#F0801A"/>
      <path d="M150.5,405.5 C142.216,405.5 135.5,398.784 135.5,390.5 C135.5,382.216 142.216,375.5 150.5,375.5 C158.784,375.5 165.5,382.216 165.5,390.5 C165.5,398.784 158.784,405.5 150.5,405.5 z" fill-opacity="0" stroke="#294270" stroke-width="1"/>
    </g>
    <g>
      <path d="M150.5,345.5 C142.216,345.5 135.5,338.784 135.5,330.5 C135.5,322.216 142.216,315.5 150.5,315.5 C158.784,315.5 165.5,322.216 165.5,330.5 C165.5,338.784 158.784,345.5 150.5,345.5 z" fill="#006CA9"/>
      <path d="M150.5,345.5 C142.216,345.5 135.5,338.784 135.5,330.5 C135.5,322.216 142.216,315.5 150.5,315.5 C158.784,315.5 165.5,322.216 165.5,330.5 C165.5,338.784 158.784,345.5 150.5,345.5 z" fill-opacity="0" stroke="#294270" stroke-width="1"/>
    </g>
    <path d="M105.5,330.5 L135.5,330.5" fill-opacity="0" stroke="#294270" stroke-width="6"/>
    <path d="M150.5,345.5 L150.5,375.5" fill-opacity="0" stroke="#294270" stroke-width="6"/>
    <path d="M105.5,390.5 L135.5,390.5" fill-opacity="0" stroke="#294270" stroke-width="6"/>
    <g>
      <path d="M210.5,345.5 C202.216,345.5 195.5,338.784 195.5,330.5 C195.5,322.216 202.216,315.5 210.5,315.5 C218.784,315.5 225.5,322.216 225.5,330.5 C225.5,338.784 218.784,345.5 210.5,345.5 z" fill="#F0801A"/>
      <path d="M210.5,345.5 C202.216,345.5 195.5,338.784 195.5,330.5 C195.5,322.216 202.216,315.5 210.5,315.5 C218.784,315.5 225.5,322.216 225.5,330.5 C225.5,338.784 218.784,345.5 210.5,345.5 z" fill-opacity="0" stroke="#294270" stroke-width="1"/>
    </g>
    <g>
      <path d="M210.5,405.5 C202.216,405.5 195.5,398.784 195.5,390.5 C195.5,382.216 202.216,375.5 210.5,375.5 C218.784,375.5 225.5,382.216 225.5,390.5 C225.5,398.784 218.784,405.5 210.5,405.5 z" fill="#006CA9"/>
      <path d="M210.5,405.5 C202.216,405.5 195.5,398.784 195.5,390.5 C195.5,382.216 202.216,375.5 210.5,375.5 C218.784,375.5 225.5,382.216 225.5,390.5 C225.5,398.784 218.784,405.5 210.5,405.5 z" fill-opacity="0" stroke="#294270" stroke-width="1"/>
    </g>
    <path d="M165.5,330.5 L195.5,330.5" fill-opacity="0" stroke="#294270" stroke-width="6"/>
    <path d="M165.5,390.5 L195.5,390.5" fill-opacity="0" stroke="#294270" stroke-width="6"/>
    <path d="M209.122,345.5 L209.122,375.5" fill-opacity="0" stroke="#294270" stroke-width="6"/>
    <text transform="matrix(1, 0, 0, 1, 231.311, 210)">
      <tspan x="-23.689" y="23" font-family="LucidaGrande" font-size="62" fill="#006CA9">✓</tspan>
    </text>
    <g>
      <path d="M300.622,45.5 C292.338,45.5 285.622,38.784 285.622,30.5 C285.622,22.216 292.338,15.5 300.622,15.5 C308.906,15.5 315.622,22.216 315.622,30.5 C315.622,38.784 308.906,45.5 300.622,45.5 z" fill="#006CA9"/>
      <path d="M300.622,45.5 C292.338,45.5 285.622,38.784 285.622,30.5 C285.622,22.216 292.338,15.5 300.622,15.5 C308.906,15.5 315.622,22.216 315.622,30.5 C315.622,38.784 308.906,45.5 300.622,45.5 z" fill-opacity="0" stroke="#294270" stroke-width="1"/>
    </g>
    <g>
      <path d="M360.622,45.5 C352.338,45.5 345.622,38.784 345.622,30.5 C345.622,22.216 352.338,15.5 360.622,15.5 C368.906,15.5 375.622,22.216 375.622,30.5 C375.622,38.784 368.906,45.5 360.622,45.5 z" fill="#F0801A"/>
      <path d="M360.622,45.5 C352.338,45.5 345.622,38.784 345.622,30.5 C345.622,22.216 352.338,15.5 360.622,15.5 C368.906,15.5 375.622,22.216 375.622,30.5 C375.622,38.784 368.906,45.5 360.622,45.5 z" fill-opacity="0" stroke="#294270" stroke-width="1"/>
    </g>
    <g>
      <path d="M360.622,105.5 C352.338,105.5 345.622,98.784 345.622,90.5 C345.622,82.216 352.338,75.5 360.622,75.5 C368.906,75.5 375.622,82.216 375.622,90.5 C375.622,98.784 368.906,105.5 360.622,105.5 z" fill="#FA8F00"/>
      <path d="M360.622,105.5 C352.338,105.5 345.622,98.784 345.622,90.5 C345.622,82.216 352.338,75.5 360.622,75.5 C368.906,75.5 375.622,82.216 375.622,90.5 C375.622,98.784 368.906,105.5 360.622,105.5 z" fill-opacity="0" stroke="#294270" stroke-width="1"/>
    </g>
    <path d="M315.622,30.5 L345.622,30.5" fill-opacity="0" stroke="#294270" stroke-width="6"/>
    <path d="M315.622,90.5 L345.622,90.5" fill-opacity="0" stroke="#294270" stroke-width="6"/>
    <g>
      <path d="M300.622,105.5 C292.338,105.5 285.622,98.784 285.622,90.5 C285.622,82.216 292.338,75.5 300.622,75.5 C308.906,75.5 315.622,82.216 315.622,90.5 C315.622,98.784 308.906,105.5 300.622,105.5 z" fill="#006CA9"/>
      <path d="M300.622,105.5 C292.338,105.5 285.622,98.784 285.622,90.5 C285.622,82.216 292.338,75.5 300.622,75.5 C308.906,75.5 315.622,82.216 315.622,90.5 C315.622,98.784 308.906,105.5 300.622,105.5 z" fill-opacity="0" stroke="#294270" stroke-width="1"/>
    </g>
    <path d="M300.622,45.5 L300.622,75.5" fill-opacity="0" stroke="#294270" stroke-width="6"/>
    <path d="M359.244,45.5 L359.244,75.5" fill-opacity="0" stroke="#294270" stroke-width="6"/>
    <g>
      <path d="M420.622,105.5 C412.338,105.5 405.622,98.784 405.622,90.5 C405.622,82.216 412.338,75.5 420.622,75.5 C428.906,75.5 435.622,82.216 435.622,90.5 C435.622,98.784 428.906,105.5 420.622,105.5 z" fill="#006CA9"/>
      <path d="M420.622,105.5 C412.338,105.5 405.622,98.784 405.622,90.5 C405.622,82.216 412.338,75.5 420.622,75.5 C428.906,75.5 435.622,82.216 435.622,90.5 C435.622,98.784 428.906,105.5 420.622,105.5 z" fill-opacity="0" stroke="#294270" stroke-width="1"/>
    </g>
    <g>
      <path d="M420.622,45.5 C412.338,45.5 405.622,38.784 405.622,30.5 C405.622,22.216 412.338,15.5 420.622,15.5 C428.906,15.5 435.622,22.216 435.622,30.5 C435.622,38.784 428.906,45.5 420.622,45.5 z" fill="#006CA9"/>
      <path d="M420.622,45.5 C412.338,45.5 405.622,38.784 405.622,30.5 C405.622,22.216 412.338,15.5 420.622,15.5 C428.906,15.5 435.622,22.216 435.622,30.5 C435.622,38.784 428.906,45.5 420.622,45.5 z" fill-opacity="0" stroke="#294270" stroke-width="1"/>
    </g>
    <path d="M375.622,30.5 L405.622,30.5" fill-opacity="0" stroke="#294270" stroke-width="6"/>
    <path d="M420.622,45.5 L420.622,75.5" fill-opacity="0" stroke="#294270" stroke-width="6"/>
    <path d="M375.622,90.5 L405.622,90.5" fill-opacity="0" stroke="#294270" stroke-width="6"/>
    <g>
      <path d="M480.622,45.5 C472.338,45.5 465.622,38.784 465.622,30.5 C465.622,22.216 472.338,15.5 480.622,15.5 C488.906,15.5 495.622,22.216 495.622,30.5 C495.622,38.784 488.906,45.5 480.622,45.5 z" fill="#F0801A"/>
      <path d="M480.622,45.5 C472.338,45.5 465.622,38.784 465.622,30.5 C465.622,22.216 472.338,15.5 480.622,15.5 C488.906,15.5 495.622,22.216 495.622,30.5 C495.622,38.784 488.906,45.5 480.622,45.5 z" fill-opacity="0" stroke="#294270" stroke-width="1"/>
    </g>
    <g>
      <path d="M480.622,105.5 C472.338,105.5 465.622,98.784 465.622,90.5 C465.622,82.216 472.338,75.5 480.622,75.5 C488.906,75.5 495.622,82.216 495.622,90.5 C495.622,98.784 488.906,105.5 480.622,105.5 z" fill="#FA8F00"/>
      <path d="M480.622,105.5 C472.338,105.5 465.622,98.784 465.622,90.5 C465.622,82.216 472.338,75.5 480.622,75.5 C488.906,75.5 495.622,82.216 495.622,90.5 C495.622,98.784 488.906,105.5 480.622,105.5 z" fill-opacity="0" stroke="#294270" stroke-width="1"/>
    </g>
    <path d="M435.622,30.5 L465.622,30.5" fill-opacity="0" stroke="#294270" stroke-width="6"/>
    <path d="M435.622,90.5 L465.622,90.5" fill-opacity="0" stroke="#294270" stroke-width="6"/>
    <path d="M479.244,45.5 L479.244,75.5" fill-opacity="0" stroke="#294270" stroke-width="6"/>
    <g>
      <path d="M330.5,167.5 C322.216,167.5 315.5,160.784 315.5,152.5 C315.5,144.216 322.216,137.5 330.5,137.5 C338.784,137.5 345.5,144.216 345.5,152.5 C345.5,160.784 338.784,167.5 330.5,167.5 z" fill="#006CA9"/>
      <path d="M330.5,167.5 C322.216,167.5 315.5,160.784 315.5,152.5 C315.5,144.216 322.216,137.5 330.5,137.5 C338.784,137.5 345.5,144.216 345.5,152.5 C345.5,160.784 338.784,167.5 330.5,167.5 z" fill-opacity="0" stroke="#294270" stroke-width="1"/>
    </g>
    <g>
      <path d="M390.5,167.5 C382.216,167.5 375.5,160.784 375.5,152.5 C375.5,144.216 382.216,137.5 390.5,137.5 C398.784,137.5 405.5,144.216 405.5,152.5 C405.5,160.784 398.784,167.5 390.5,167.5 z" fill="#F0801A"/>
      <path d="M390.5,167.5 C382.216,167.5 375.5,160.784 375.5,152.5 C375.5,144.216 382.216,137.5 390.5,137.5 C398.784,137.5 405.5,144.216 405.5,152.5 C405.5,160.784 398.784,167.5 390.5,167.5 z" fill-opacity="0" stroke="#294270" stroke-width="1"/>
    </g>
    <g>
      <path d="M390.5,227.5 C382.216,227.5 375.5,220.784 375.5,212.5 C375.5,204.216 382.216,197.5 390.5,197.5 C398.784,197.5 405.5,204.216 405.5,212.5 C405.5,220.784 398.784,227.5 390.5,227.5 z" fill="#F0801A"/>
      <path d="M390.5,227.5 C382.216,227.5 375.5,220.784 375.5,212.5 C375.5,204.216 382.216,197.5 390.5,197.5 C398.784,197.5 405.5,204.216 405.5,212.5 C405.5,220.784 398.784,227.5 390.5,227.5 z" fill-opacity="0" stroke="#294270" stroke-width="1"/>
    </g>
    <path d="M345.5,152.5 L375.5,152.5" fill-opacity="0" stroke="#294270" stroke-width="6"/>
    <path d="M345.5,212.5 L375.5,212.5" fill-opacity="0" stroke="#294270" stroke-width="6"/>
    <g>
      <path d="M330.5,227.5 C322.216,227.5 315.5,220.784 315.5,212.5 C315.5,204.216 322.216,197.5 330.5,197.5 C338.784,197.5 345.5,204.216 345.5,212.5 C345.5,220.784 338.784,227.5 330.5,227.5 z" fill="#F0801A"/>
      <path d="M330.5,227.5 C322.216,227.5 315.5,220.784 315.5,212.5 C315.5,204.216 322.216,197.5 330.5,197.5 C338.784,197.5 345.5,204.216 345.5,212.5 C345.5,220.784 338.784,227.5 330.5,227.5 z" fill-opacity="0" stroke="#294270" stroke-width="1"/>
    </g>
    <path d="M330.5,167.5 L330.5,197.5" fill-opacity="0" stroke="#294270" stroke-width="6"/>
    <path d="M389.122,167.5 L389.122,197.5" fill-opacity="0" stroke="#294270" stroke-width="6"/>
    <g>
      <path d="M450.5,227.5 C442.216,227.5 435.5,220.784 435.5,212.5 C435.5,204.216 442.216,197.5 450.5,197.5 C458.784,197.5 465.5,204.216 465.5,212.5 C465.5,220.784 458.784,227.5 450.5,227.5 z" fill="#F0801A"/>
      <path d="M450.5,227.5 C442.216,227.5 435.5,220.784 435.5,212.5 C435.5,204.216 442.216,197.5 450.5,197.5 C458.784,197.5 465.5,204.216 465.5,212.5 C465.5,220.784 458.784,227.5 450.5,227.5 z" fill-opacity="0" stroke="#294270" stroke-width="1"/>
    </g>
    <g>
      <path d="M450.5,167.5 C442.216,167.5 435.5,160.784 435.5,152.5 C435.5,144.216 442.216,137.5 450.5,137.5 C458.784,137.5 465.5,144.216 465.5,152.5 C465.5,160.784 458.784,167.5 450.5,167.5 z" fill="#006CA9"/>
      <path d="M450.5,167.5 C442.216,167.5 435.5,160.784 435.5,152.5 C435.5,144.216 442.216,137.5 450.5,137.5 C458.784,137.5 465.5,144.216 465.5,152.5 C465.5,160.784 458.784,167.5 450.5,167.5 z" fill-opacity="0" stroke="#294270" stroke-width="1"/>
    </g>
    <path d="M405.5,152.5 L435.5,152.5" fill-opacity="0" stroke="#294270" stroke-width="6"/>
    <path d="M450.5,167.5 L450.5,197.5" fill-opacity="0" stroke="#294270" stroke-width="6"/>
    <path d="M405.5,212.5 L435.5,212.5" fill-opacity="0" stroke="#294270" stroke-width="6"/>
    <g>
      <path d="M330.5,287.5 C322.216,287.5 315.5,280.784 315.5,272.5 C315.5,264.216 322.216,257.5 330.5,257.5 C338.784,257.5 345.5,264.216 345.5,272.5 C345.5,280.784 338.784,287.5 330.5,287.5 z" fill="#006CA9"/>
      <path d="M330.5,287.5 C322.216,287.5 315.5,280.784 315.5,272.5 C315.5,264.216 322.216,257.5 330.5,257.5 C338.784,257.5 345.5,264.216 345.5,272.5 C345.5,280.784 338.784,287.5 330.5,287.5 z" fill-opacity="0" stroke="#294270" stroke-width="1"/>
    </g>
    <g>
      <path d="M390.5,287.5 C382.216,287.5 375.5,280.784 375.5,272.5 C375.5,264.216 382.216,257.5 390.5,257.5 C398.784,257.5 405.5,264.216 405.5,272.5 C405.5,280.784 398.784,287.5 390.5,287.5 z" fill="#F0801A"/>
      <path d="M390.5,287.5 C382.216,287.5 375.5,280.784 375.5,272.5 C375.5,264.216 382.216,257.5 390.5,257.5 C398.784,257.5 405.5,264.216 405.5,272.5 C405.5,280.784 398.784,287.5 390.5,287.5 z" fill-opacity="0" stroke="#294270" stroke-width="1"/>
    </g>
    <path d="M345.5,272.5 L375.5,272.5" fill-opacity="0" stroke="#294270" stroke-width="6"/>
    <g>
      <path d="M450.5,287.5 C442.216,287.5 435.5,280.784 435.5,272.5 C435.5,264.216 442.216,257.5 450.5,257.5 C458.784,257.5 465.5,264.216 465.5,272.5 C465.5,280.784 458.784,287.5 450.5,287.5 z" fill="#006CA9"/>
      <path d="M450.5,287.5 C442.216,287.5 435.5,280.784 435.5,272.5 C435.5,264.216 442.216,257.5 450.5,257.5 C458.784,257.5 465.5,264.216 465.5,272.5 C465.5,280.784 458.784,287.5 450.5,287.5 z" fill-opacity="0" stroke="#294270" stroke-width="1"/>
    </g>
    <path d="M405.5,272.5 L435.5,272.5" fill-opacity="0" stroke="#294270" stroke-width="6"/>
    <path d="M330.5,227.5 L330.5,257.5" fill-opacity="0" stroke="#294270" stroke-width="6"/>
    <path d="M389.122,227.5 L389.122,257.5" fill-opacity="0" stroke="#294270" stroke-width="6"/>
    <path d="M450.5,227.5 L450.5,257.5" fill-opacity="0" stroke="#294270" stroke-width="6"/>
    <g>
      <path d="M360.5,345.5 C352.216,345.5 345.5,338.784 345.5,330.5 C345.5,322.216 352.216,315.5 360.5,315.5 C368.784,315.5 375.5,322.216 375.5,330.5 C375.5,338.784 368.784,345.5 360.5,345.5 z" fill="#006CA9"/>
      <path d="M360.5,345.5 C352.216,345.5 345.5,338.784 345.5,330.5 C345.5,322.216 352.216,315.5 360.5,315.5 C368.784,315.5 375.5,322.216 375.5,330.5 C375.5,338.784 368.784,345.5 360.5,345.5 z" fill-opacity="0" stroke="#294270" stroke-width="1"/>
    </g>
    <g>
      <path d="M419.122,345.5 C410.838,345.5 404.122,338.784 404.122,330.5 C404.122,322.216 410.838,315.5 419.122,315.5 C427.406,315.5 434.122,322.216 434.122,330.5 C434.122,338.784 427.406,345.5 419.122,345.5 z" fill="#006CA9"/>
      <path d="M419.122,345.5 C410.838,345.5 404.122,338.784 404.122,330.5 C404.122,322.216 410.838,315.5 419.122,315.5 C427.406,315.5 434.122,322.216 434.122,330.5 C434.122,338.784 427.406,345.5 419.122,345.5 z" fill-opacity="0" stroke="#294270" stroke-width="1"/>
    </g>
    <g>
      <path d="M419.122,405.5 C410.838,405.5 404.122,398.784 404.122,390.5 C404.122,382.216 410.838,375.5 419.122,375.5 C427.406,375.5 434.122,382.216 434.122,390.5 C434.122,398.784 427.406,405.5 419.122,405.5 z" fill="#006CA9"/>
      <path d="M419.122,405.5 C410.838,405.5 404.122,398.784 404.122,390.5 C404.122,382.216 410.838,375.5 419.122,375.5 C427.406,375.5 434.122,382.216 434.122,390.5 C434.122,398.784 427.406,405.5 419.122,405.5 z" fill-opacity="0" stroke="#294270" stroke-width="1"/>
    </g>
    <path d="M375.5,330.5 L405.5,330.5" fill-opacity="0" stroke="#294270" stroke-width="6"/>
    <path d="M375.5,390.5 L405.5,390.5" fill-opacity="0" stroke="#294270" stroke-width="6"/>
    <g>
      <path d="M360.5,405.5 C352.216,405.5 345.5,398.784 345.5,390.5 C345.5,382.216 352.216,375.5 360.5,375.5 C368.784,375.5 375.5,382.216 375.5,390.5 C375.5,398.784 368.784,405.5 360.5,405.5 z" fill="#006CA9"/>
      <path d="M360.5,405.5 C352.216,405.5 345.5,398.784 345.5,390.5 C345.5,382.216 352.216,375.5 360.5,375.5 C368.784,375.5 375.5,382.216 375.5,390.5 C375.5,398.784 368.784,405.5 360.5,405.5 z" fill-opacity="0" stroke="#294270" stroke-width="1"/>
    </g>
    <path d="M360.5,345.5 L360.5,375.5" fill-opacity="0" stroke="#294270" stroke-width="6"/>
    <path d="M419.122,345.5 L419.122,375.5" fill-opacity="0" stroke="#294270" stroke-width="6"/>
    <text transform="matrix(1, 0, 0, 1, 497.695, 210)">
      <tspan x="-17.695" y="19" font-family="ZapfDingbatsITC" font-size="62" fill="#F0801A">✗</tspan>
    </text>
    <text transform="matrix(1, 0, 0, 1, 467.695, 360)">
      <tspan x="-17.695" y="19" font-family="ZapfDingbatsITC" font-size="62" fill="#F0801A">✗</tspan>
    </text>
  </g>
</svg>
